<svg width="128" height="128" viewBox="0 0 128 128" fill="none" xmlns="http://www.w3.org/2000/svg">
<rect width="128" height="128" fill="#00005B"/>
<path d="M32.1453 91.7226H22.1568C21.6996 91.7226 21.4939 91.4711 21.4939 90.9683V37.1854C21.4939 36.6826 21.6539 36.4083 21.9968 36.4083L27.071 36.294H39.711C43.7794 36.1786 47.8315 36.854 51.6425 38.2826C54.6193 39.4295 57.1888 41.4341 59.0253 44.0426C60.8146 46.7907 61.7162 50.0222 61.6082 53.2997C61.6306 55.4911 61.1702 57.6606 60.2596 59.654C59.3108 61.513 58.0151 63.1733 56.4425 64.5454C54.8322 66.0052 52.9746 67.1663 50.9568 67.974C51.5053 68.7054 52.3053 69.8026 53.2425 71.3112C54.1796 72.8197 55.3682 74.4654 56.5796 76.294L60.2139 81.8254C61.4253 83.6997 62.4996 85.414 63.5282 86.9912C64.5568 88.5683 65.2653 89.8026 65.8139 90.7169C65.9608 90.9055 66.0339 91.1411 66.0196 91.3797C66.02 91.4289 66.0099 91.4775 65.9899 91.5224C65.9699 91.5673 65.9405 91.6074 65.9036 91.6399C65.8668 91.6724 65.8233 91.6966 65.7763 91.7109C65.7293 91.7251 65.6797 91.7291 65.631 91.7226H53.4482C53.1991 91.7707 52.943 91.7707 52.6939 91.7226C52.5191 91.6311 52.3699 91.4976 52.2596 91.334C51.6425 90.4426 50.8653 89.254 49.9739 87.7912C49.0825 86.3283 48.0539 84.6826 47.0253 82.8769C45.9967 81.0712 44.9453 79.2883 43.8939 77.5512C42.8425 75.814 41.9282 74.214 41.151 72.8197C40.8771 72.3957 40.5464 72.0112 40.1682 71.6769C39.8634 71.4575 39.4912 71.3523 39.1168 71.3797H32.8082V91.0826C32.8082 91.4712 32.5796 91.7226 32.1453 91.7226ZM32.8082 61.2769H39.4139C41.3125 61.3304 43.2063 61.0599 45.0139 60.4769C46.4366 60.0327 47.689 59.1632 48.6025 57.9854C49.484 56.7557 49.934 55.269 49.8825 53.7569C49.9689 52.645 49.7455 51.531 49.2371 50.5384C48.7287 49.5459 47.9552 48.7136 47.0025 48.134C44.6712 46.8718 42.0391 46.2711 39.391 46.3969H35.6196C34.4768 46.3969 33.5625 46.3969 32.8768 46.3969L32.8082 61.2769Z" fill="#9999FF"/>
<path d="M106.134 50.2825V82.2825C106.134 83.6768 106.134 84.9339 106.134 86.0311C106.134 87.1282 106.134 88.0882 106.294 88.9111C106.454 89.7339 106.454 90.4197 106.5 90.9911C106.545 91.5625 106.363 91.6539 105.928 91.6539H96.7854C96.5731 91.6769 96.3589 91.6317 96.174 91.5249C95.9891 91.418 95.8429 91.2551 95.7568 91.0597C95.7568 90.6711 95.5511 90.2368 95.4597 89.7568C95.3915 89.3257 95.3533 88.8904 95.3454 88.4539C93.6841 89.959 91.7088 91.0755 89.5625 91.7225C87.6612 92.234 85.7028 92.5028 83.734 92.5225C81.7927 92.5476 79.861 92.2463 78.0197 91.6311C76.2811 91.0755 74.7095 90.0932 73.4482 88.7739C72.0966 87.3217 71.082 85.5891 70.4768 83.6997C69.719 81.2749 69.3638 78.7422 69.4254 76.2025V50.3739C69.4144 50.2812 69.4245 50.1872 69.4551 50.099C69.4856 50.0108 69.5358 49.9307 69.6018 49.8647C69.6678 49.7987 69.748 49.7485 69.8362 49.7179C69.9244 49.6874 70.0184 49.6772 70.1111 49.6882H80.5111C80.603 49.6763 80.6964 49.686 80.7839 49.7167C80.8713 49.7473 80.9504 49.7979 81.0148 49.8645C81.0792 49.9312 81.1272 50.0119 81.1548 50.1004C81.1824 50.1888 81.189 50.2825 81.174 50.3739V74.8997C81.1024 76.8279 81.6732 78.7253 82.7968 80.2939C83.4238 81.0047 84.2112 81.5557 85.0936 81.9016C85.976 82.2474 86.9282 82.378 87.8711 82.2825C89.0815 82.2902 90.2828 82.0732 91.414 81.6425C92.4842 81.2122 93.4854 80.6269 94.3854 79.9054V50.1911C94.3854 49.8025 94.6368 49.5968 95.1397 49.5968H105.54C105.63 49.58 105.723 49.587 105.81 49.6173C105.896 49.6475 105.973 49.7 106.033 49.7693C106.093 49.8386 106.134 49.9225 106.152 50.0125C106.17 50.1025 106.163 50.1956 106.134 50.2825Z" fill="#9999FF"/>
</svg>
