<svg width="128" height="128" viewBox="0 0 128 128" fill="none" xmlns="http://www.w3.org/2000/svg">
<rect width="128" height="128" fill="#000B1D"/>
<path fill-rule="evenodd" clip-rule="evenodd" d="M62.4871 68.7808L62.4858 68.7817C58.2376 71.8561 52.8746 73.3681 46.4468 73.3681H43.7542L43.7351 73.367C43.4129 73.3491 43.1414 73.3342 42.9205 73.3223V90.6674C42.9205 90.9879 42.8247 91.3464 42.524 91.6095C42.2408 91.8573 41.8868 91.9212 41.5857 91.9212H32.9979C32.703 91.9212 32.3557 91.847 32.087 91.5783C31.8183 91.3096 31.7441 90.9623 31.7441 90.6674V38.3299C31.7441 38.0587 31.8 37.7272 32.031 37.4578C32.2758 37.1721 32.6096 37.0788 32.9044 37.0763C36.3713 36.9681 41.2377 36.9142 47.5 36.9142C54.7156 36.9142 60.1647 38.5789 63.695 42.0495C67.238 45.4257 69.0082 49.6852 69.0082 54.7765C69.0082 60.8985 66.853 65.6055 62.4871 68.7808ZM55.1382 48.1534L55.1308 48.1465C53.4071 46.5213 50.8984 45.66 47.5 45.66C45.2746 45.66 43.7619 45.6934 42.9205 45.7529V64.4461C43.749 64.5079 45.0783 64.5413 46.9329 64.5413C50.2284 64.5413 52.8562 63.7842 54.8702 62.3257C56.7974 60.8778 57.8319 58.4763 57.8319 54.9386C57.8319 51.9584 56.9138 49.7318 55.1457 48.1601L55.1382 48.1534Z" fill="white"/>
<path d="M93.2564 42.9257C92.4883 43.9847 92.0504 45.657 92.0504 48.0521V51.0923H98.1693C98.4642 51.0923 98.8115 51.1665 99.0802 51.4352C99.3489 51.7039 99.423 52.0511 99.423 52.346V58.3413C99.423 58.643 99.3462 58.9707 99.1114 59.239C98.8773 59.5065 98.5637 59.6267 98.2664 59.6692L98.2181 59.6761H92.0504V90.5864C92.0504 90.9083 91.9695 91.2758 91.6873 91.558C91.4051 91.8402 91.0376 91.9212 90.7157 91.9212H82.1278C81.8059 91.9212 81.4384 91.8402 81.1562 91.558C80.874 91.2758 80.7931 90.9083 80.7931 90.5864V59.6761H76.7806C76.4511 59.6761 76.1041 59.5558 75.8668 59.2394C75.6573 58.9601 75.6079 58.6234 75.6079 58.3413V52.346C75.6079 52.0748 75.6638 51.7433 75.8947 51.4738C76.1431 51.1841 76.4827 51.0923 76.7806 51.0923H80.7931V48.8622C80.7931 45.0689 81.4238 41.9004 82.731 39.3961C83.942 36.9486 85.592 35.0816 87.6906 33.831C89.7889 32.5807 92.2926 31.9721 95.1717 31.9721C97.2948 31.9721 98.9943 32.2122 100.205 32.7492C100.493 32.8534 100.739 33.0419 100.905 33.3182C101.07 33.5925 101.124 33.902 101.124 34.198V40.7605C101.124 41.0323 101.084 41.4756 100.743 41.7679C100.344 42.11 99.868 41.9913 99.6056 41.8799C98.7858 41.543 97.8252 41.366 96.711 41.366C95.1049 41.366 93.9948 41.9076 93.2564 42.9257Z" fill="white"/>
</svg>
