<svg width="128" height="128" viewBox="0 0 128 128" fill="none" xmlns="http://www.w3.org/2000/svg">
<rect width="128" height="128" fill="#001E36"/>
<path d="M47.1054 90.4926L47.102 90.5064C47.0242 90.8177 46.8699 91.1197 46.5949 91.3397C46.3178 91.5613 45.988 91.6439 45.6645 91.6439H16.7131C16.3541 91.6439 15.9677 91.541 15.6837 91.2254C15.4117 90.9232 15.3346 90.5362 15.3346 90.1865V39.5413C15.3346 39.2278 15.4134 38.87 15.6882 38.5952C15.963 38.3204 16.3208 38.2416 16.6342 38.2416H25.0751C25.3651 38.2416 25.6959 38.331 25.9377 38.6131C26.1626 38.8755 26.217 39.1983 26.217 39.4624V82.8915H47.1634C47.4647 82.8915 47.8754 82.9528 48.1595 83.2776C48.4571 83.6176 48.4402 84.0373 48.368 84.3378L47.1054 90.4926Z" fill="#31A8FF"/>
<path d="M51.0771 52.2605C51.3371 51.9573 51.7019 51.889 51.9792 51.889H59.3945C59.7205 51.889 60.0422 51.9725 60.3202 52.1747C60.5927 52.3728 60.7722 52.6479 60.8855 52.9466C61.2136 53.7693 61.4437 54.8246 61.5872 56.0964C64.6214 52.8245 68.4796 51.179 73.1208 51.179C73.4079 51.179 73.7461 51.2513 74.0077 51.5129C74.2693 51.7745 74.3415 52.1127 74.3415 52.3998V60.3673C74.3415 60.6723 74.2661 61.0523 73.9555 61.3241C73.6547 61.5873 73.2816 61.619 72.9839 61.5859C68.5606 61.3356 65.1677 62.4816 62.7072 64.9422C62.3814 65.2679 62.193 65.7171 62.193 66.3627V90.4232C62.193 90.7352 62.0997 91.0843 61.8069 91.3405C61.5312 91.5817 61.1865 91.6439 60.8934 91.6439H52.6103C52.2887 91.6439 51.9226 91.5742 51.6336 91.3173C51.3296 91.0471 51.2318 90.6795 51.2318 90.3443V63.6806C51.2318 59.4392 51.101 55.943 50.8416 53.1865C50.8058 52.9155 50.8245 52.5553 51.0771 52.2605Z" fill="#31A8FF"/>
<path d="M113.76 90.71L113.72 90.7266C111.027 91.8258 107.324 92.3539 102.66 92.3539C95.0475 92.3539 88.7002 90.0708 83.6702 85.4735C78.5956 80.8354 76.1162 73.8683 76.1162 64.7061C76.1162 56.5672 78.5848 49.9699 83.5696 44.985C88.6056 39.949 95.2283 37.4528 103.37 37.4528C108.162 37.4528 111.824 37.9997 114.275 39.1594C114.571 39.2693 114.808 39.473 114.961 39.7536C115.112 40.03 115.161 40.3429 115.161 40.6457V47.5088C115.161 47.6968 115.146 47.8891 115.099 48.0656C115.054 48.2337 114.959 48.4681 114.736 48.6353C114.485 48.8238 114.199 48.8345 113.975 48.7786C113.792 48.7327 113.631 48.6399 113.5 48.5459C111.005 47.1592 107.748 46.4418 103.685 46.4418C98.5752 46.4418 94.6105 48.0196 91.7092 51.121L91.7055 51.125C88.8091 54.1711 87.3141 58.5592 87.3141 64.3906C87.3141 67.9542 87.8304 71.0216 88.8436 73.6076C89.9154 76.2087 91.2985 78.1234 92.9682 79.4002C94.7041 80.7277 96.479 81.6889 98.2928 82.2938C100.169 82.9022 102.124 83.2071 104.158 83.2071C107.45 83.2071 110.471 82.7196 113.227 81.7525C113.465 81.6543 113.889 81.5413 114.27 81.813C114.644 82.08 114.688 82.5211 114.688 82.7712V89.0821C114.688 89.7616 114.403 90.3428 113.799 90.6881L113.76 90.71Z" fill="#31A8FF"/>
</svg>
