<svg width="128" height="128" viewBox="0 0 128 128" fill="none" xmlns="http://www.w3.org/2000/svg">
<rect width="128" height="128" fill="#000B1D"/>
<path fill-rule="evenodd" clip-rule="evenodd" d="M28.6068 37.1227L28.6657 37.1212C34.9607 36.9598 40.0227 36.879 43.8495 36.879C47.6081 36.879 50.8312 37.3141 53.5022 38.2041C56.2021 39.0859 58.2647 40.2944 59.6122 41.8734C60.9429 43.3716 61.8834 44.897 62.4036 46.4516C62.9691 47.9823 63.249 49.6194 63.249 51.3575C63.249 54.44 62.4337 57.0248 60.7523 59.0541C59.5068 60.5573 58.0444 61.7375 56.3689 62.5898C58.7312 63.4387 60.8224 64.7477 62.6361 66.5152C64.9515 68.7167 66.0725 71.7629 66.0725 75.559C66.0725 80.9285 63.987 85.1242 59.8122 88.0578L59.8107 88.0589C55.7274 90.9116 50.0848 92.2964 42.9621 92.2964C39.1349 92.2964 34.3951 92.2155 28.7444 92.0541L28.6976 92.0527L28.6515 92.0451C28.3294 91.9914 28.0311 91.8267 27.832 91.5281C27.6486 91.2529 27.5962 90.9337 27.5962 90.6446V38.5307C27.5962 38.2579 27.6365 37.9582 27.7831 37.6945C27.9466 37.4001 28.2158 37.2009 28.5491 37.1342L28.6068 37.1227ZM51.9745 69.882L51.9661 69.875C50.3095 68.5108 47.7767 67.7721 44.2529 67.7721H38.5635V83.5636C39.5878 83.6325 41.2091 83.6686 43.4461 83.6686C47.3069 83.6686 50.078 82.9445 51.8707 81.6061C53.6259 80.2957 54.5406 78.3221 54.5406 75.559C54.5406 73.0502 53.6741 71.1931 51.9831 69.8886L51.9745 69.882ZM43.4461 45.5067C41.0479 45.5067 39.4301 45.5224 38.5635 45.5512V58.983H43.8495C46.9492 58.983 49.0545 58.3226 50.3228 57.1482C51.6221 55.9452 52.2818 54.3855 52.2818 52.4062C52.2818 50.0304 51.5439 48.3563 50.1596 47.2536C48.7457 46.1272 46.5467 45.5067 43.4461 45.5067Z" fill="white"/>
<path fill-rule="evenodd" clip-rule="evenodd" d="M102.643 90.5832L102.559 90.6213C99.3806 92.0711 95.5128 92.7804 90.9814 92.7804C84.2389 92.7804 79.1444 90.8578 75.8533 86.8859L75.8466 86.8778C72.6681 82.9186 71.0978 78.0005 71.0978 72.1708C71.0978 66.1236 72.7502 61.0166 76.0907 56.8966C79.4604 52.7407 84.0741 50.6738 89.852 50.6738C95.3216 50.6738 99.5003 52.3656 102.246 55.8532C104.982 59.2608 106.347 63.2581 106.347 67.8145C106.347 70.0009 106.243 71.6217 106.013 72.6229C105.967 72.9094 105.85 73.1934 105.623 73.4206C105.388 73.6556 105.092 73.7722 104.796 73.8152C103.337 74.0391 100.544 74.1452 96.467 74.1452H82.4119C82.5754 77.124 83.4914 79.4339 85.1049 81.1396C86.8156 82.948 89.4295 83.9106 93.0788 83.9106C96.4214 83.9106 99.3748 83.3398 101.952 82.2147C102.059 82.1489 102.19 82.0843 102.339 82.0513C102.528 82.0093 102.782 82.0128 103.018 82.17C103.239 82.3172 103.338 82.5305 103.384 82.6835C103.431 82.8389 103.443 82.9995 103.443 83.1422V89.0312C103.443 89.6357 103.171 90.1426 102.713 90.5245L102.643 90.5832ZM84.5905 61.0449C83.5095 62.4862 82.7955 64.317 82.4752 66.5662H92.3528C93.5056 66.5662 94.4024 66.5527 95.0476 66.5264C95.3063 66.5158 95.52 66.5034 95.6908 66.4894C95.6982 66.3472 95.7027 66.1717 95.7027 65.9591C95.7027 64.0427 95.2007 62.3475 94.2041 60.8526C93.2872 59.4773 91.7851 58.7369 89.5293 58.7369C87.3532 58.7369 85.7379 59.515 84.5905 61.0449Z" fill="white"/>
</svg>
