<svg width="128" height="128" viewBox="0 0 128 128" fill="none" xmlns="http://www.w3.org/2000/svg">
<rect width="128" height="128" fill="#00005B"/>
<path d="M30.1825 90.5929V36.65C30.1825 36.1929 30.4111 35.9643 30.6396 35.9643C31.5539 35.9643 32.6968 35.9643 33.8396 35.9643C34.9825 35.9643 36.3539 35.9643 37.9539 35.9643C39.3254 35.9643 40.9254 35.9643 42.5254 35.9643C44.1254 35.9643 46.1825 36.4214 47.7825 36.4214C51.4396 36.4214 55.0968 36.8786 58.5254 38.0214C61.2682 38.9357 63.5539 40.3071 65.6111 42.3643C67.2111 43.9643 68.5825 46.0214 69.4968 48.3071C70.1825 50.5929 70.6396 52.8786 70.6396 55.1643C70.8682 59.05 69.7253 62.9357 67.4396 66.3643C65.3825 69.3357 62.4111 71.6214 58.9825 72.7643C55.0968 74.1357 51.2111 74.8214 47.0968 74.8214C45.9539 74.8214 45.0396 74.8214 44.5825 74.8214C44.1254 74.8214 42.0682 74.3643 40.9254 74.3643V91.05C40.9254 91.5071 40.6968 91.7357 40.2396 91.7357H30.6396C30.4111 91.2786 30.1825 91.05 30.1825 90.5929ZM41.1539 46.0214V63.6214C41.8396 63.6214 43.8968 64.0786 44.5825 64.0786H47.3254C49.3825 64.0786 51.4396 63.85 53.2682 63.1643C54.8682 62.7071 56.4682 61.7929 57.6111 60.4214C58.7539 58.8214 59.4396 56.9929 59.2111 54.9357C59.2111 53.3357 58.7539 51.7357 58.0682 50.3643C57.1539 48.9929 55.7825 47.85 54.4111 47.3929C52.3539 46.7072 50.2968 46.25 48.2396 46.25C46.8682 46.25 45.7254 46.25 44.5825 46.25C43.4396 46.4786 41.3825 46.0214 41.1539 46.0214Z" fill="#9999FF"/>
<path d="M77.9541 49.6786H87.097C87.5541 49.6786 88.0113 50.1357 88.2399 50.5929C88.4684 51.05 88.697 51.2786 88.697 51.7357C88.9256 52.1929 88.9256 52.8786 88.9256 53.3357C88.9256 54.0215 88.9256 54.4786 88.9256 55.1643C90.5256 53.3357 92.3541 51.7357 94.6399 50.5929C96.9256 49.2214 99.4399 48.5357 101.954 48.7643C102.411 48.7643 102.64 48.9929 102.64 49.2214V59.7357C102.64 60.1929 102.411 60.4214 101.726 60.4214C99.897 60.1929 98.297 60.4214 96.697 60.8786C95.097 61.1072 93.7256 61.5643 92.3542 62.25C91.2113 62.7072 89.8399 63.3929 88.9256 64.3072V91.05C88.9256 91.5072 88.697 91.7357 88.2399 91.7357H78.6399C78.1827 91.7357 77.9542 91.5072 77.7256 91.05V61.7929C77.7256 60.65 77.7256 59.2786 77.7256 57.9072C77.7256 56.5357 77.7256 55.1643 77.497 53.7929C77.497 52.65 77.2684 51.5072 77.2684 50.3643C77.2684 50.1357 77.2684 50.1357 77.497 49.9072C77.497 49.6786 77.7256 49.6786 77.9541 49.6786Z" fill="#9999FF"/>
</svg>
