<svg width="128" height="128" viewBox="0 0 128 128" fill="none" xmlns="http://www.w3.org/2000/svg">
<rect width="128" height="128" fill="#241703"/>
<path d="M66.0684 69.9459C66.388 69.9459 66.753 69.8656 67.0332 69.5853C67.3134 69.3051 67.3938 68.9402 67.3938 68.6206V62.3455C67.3938 62.0259 67.3134 61.661 67.0332 61.3808C66.753 61.1006 66.388 61.0202 66.0684 61.0202H47.6838V46.3744H68.2405C68.5795 46.3744 68.9834 46.2903 69.273 45.9646C69.5616 45.6399 69.5992 45.2295 69.5618 44.8933L68.7559 38.6069L68.7545 38.5972C68.7091 38.2788 68.5688 37.9601 68.277 37.7331C67.9967 37.5151 67.6618 37.4487 67.3556 37.4487H37.8308C37.538 37.4487 37.1932 37.5223 36.9264 37.7891C36.6596 38.0559 36.5859 38.4008 36.5859 38.6936V90.5831C36.5859 90.8632 36.635 91.1976 36.843 91.4749C37.0786 91.789 37.4232 91.9085 37.7504 91.9085H46.4389C46.7571 91.9085 47.1131 91.8133 47.3743 91.5147C47.6204 91.2335 47.6838 90.882 47.6838 90.5831V69.9459H66.0684Z" fill="#F19D3B"/>
<path d="M93.1372 61.6274L93.1589 61.6417L93.1817 61.6543C93.4589 61.8084 94.0004 62.0255 94.4744 61.6569C94.6866 61.4918 94.7922 61.2689 94.8463 61.0825C94.9008 60.8947 94.9186 60.6924 94.9186 60.4952V54.0593C94.9186 53.5064 94.7927 52.7708 94.1289 52.4782C91.7878 51.2313 88.502 50.6423 84.3416 50.6423C79.8327 50.6423 76.2189 51.7708 73.5905 54.1135C70.9773 56.4427 69.6617 59.3904 69.6617 62.9087C69.6617 65.8885 70.5087 68.4358 72.2332 70.5051L72.2393 70.5123C73.9479 72.5056 76.8474 74.3517 80.8472 76.082C83.2034 77.1533 84.6414 78.0457 85.2901 78.7407L85.3245 78.7728C85.9872 79.3914 86.3146 80.1478 86.3146 81.0901C86.3146 81.9173 85.9597 82.6068 85.1492 83.1923C84.3441 83.7737 83.1382 84.109 81.4454 84.109C77.8634 84.109 74.4734 82.939 71.2615 80.5642C71.1027 80.4243 70.8923 80.3279 70.6452 80.3279C70.4136 80.3279 70.2198 80.4129 70.0769 80.5027C69.6359 80.7506 69.5813 81.2374 69.5813 81.4924V88.7328C69.5813 89.3443 69.863 89.8486 70.3676 90.185L70.3901 90.2L70.4137 90.2131C73.3373 91.8436 77.1105 92.6325 81.6868 92.6325C86.2454 92.6325 89.9758 91.5333 92.8098 89.2672C95.7173 86.9856 97.1712 83.8876 97.1712 80.0443C97.1712 77.0107 96.2968 74.4561 94.5089 72.4357C92.7437 70.3879 89.708 68.4897 85.498 66.7079C83.0942 65.6393 81.626 64.7744 80.971 64.1248C80.396 63.5015 80.116 62.785 80.116 61.9433C80.116 61.2146 80.4265 60.5674 81.1513 59.9785C81.831 59.4263 82.9831 59.0853 84.7439 59.0853C87.7725 59.0853 90.5652 59.9298 93.1372 61.6274Z" fill="#F19D3B"/>
</svg>
