<svg width="128" height="128" viewBox="0 0 128 128" fill="none" xmlns="http://www.w3.org/2000/svg">
<rect width="128" height="128" fill="#000B1D"/>
<path d="M30.6975 87.6874L30.6741 87.6718C30.0743 87.2719 29.8604 86.6104 29.8604 85.9191V77.7602C29.8604 77.5843 29.8768 77.3886 29.9383 77.2041C30.0004 77.0177 30.1351 76.7706 30.417 76.6296C30.6989 76.4887 30.9773 76.5292 31.1637 76.5914C31.3438 76.6514 31.5066 76.7522 31.6451 76.8551C36.1475 79.9991 40.7791 81.5504 45.5518 81.5504C48.5924 81.5504 50.6661 80.9487 51.9222 79.8864C53.2651 78.7419 53.921 77.3279 53.921 75.5956C53.921 73.9286 53.3965 72.5474 52.3571 71.4091L52.3456 71.3965C51.3407 70.2409 49.3234 68.932 46.1748 67.4958L46.1655 67.4916L43.0019 65.9929C38.5119 63.8602 35.2102 61.4979 33.1727 58.8784L33.1681 58.8725C31.1189 56.1792 30.1369 52.9412 30.1935 49.1985C30.1948 44.6193 31.8868 40.7685 35.2518 37.6935C38.6418 34.5958 43.4143 33.0964 49.4647 33.0964C54.4979 33.0964 58.5792 33.8738 61.6557 35.486C62.3819 35.7642 62.5752 36.4977 62.5752 37.1321V44.7082C62.5752 45.0493 62.454 45.3714 62.202 45.6234L62.1211 45.7044L62.0187 45.7556C61.7893 45.8702 61.5573 45.871 61.379 45.8413C61.2021 45.8118 61.0353 45.7459 60.8881 45.6723L60.8558 45.6562L60.8254 45.6369C57.45 43.4938 53.6146 42.4166 49.2982 42.4166C46.3914 42.4166 44.4197 43.0916 43.22 44.2913C41.9959 45.5154 41.4286 46.8142 41.4286 48.2049C41.4286 49.6969 41.9201 51.004 42.9205 52.1544C43.9272 53.3121 45.9192 54.6204 49.0088 56.0552L52.3436 57.5558C57.2673 59.8498 60.7541 62.3267 62.6906 65.0244C64.6207 67.6578 65.5723 70.8049 65.5723 74.43C65.5723 79.5104 63.7128 83.6031 59.9834 86.6332C56.3248 89.595 51.4041 91.0372 45.302 91.0372C39.6068 91.0372 34.7363 89.9375 30.7221 87.7011L30.6975 87.6874Z" fill="white"/>
<path d="M95.94 88.7336L95.8842 88.7582C93.8776 89.6434 91.3573 90.067 88.3562 90.067C84.6811 90.067 81.799 89.074 79.8465 86.969C77.9034 84.8741 76.9941 81.7982 76.9941 77.8724V56.1825H72.7375L72.6879 56.1754C72.3585 56.1284 72.0286 55.9832 71.7937 55.6812C71.568 55.3911 71.4993 55.0446 71.4993 54.7277V48.7334C71.4993 48.4026 71.5825 48.0249 71.8725 47.7349C72.1625 47.445 72.5402 47.3618 72.8709 47.3618H77.0957C77.2172 43.104 77.4898 39.9733 77.9267 38.007L77.9308 37.9889C78.081 37.3879 78.4544 36.8334 79.1655 36.7148L79.1784 36.7127L87.5629 35.6335C87.8391 35.5702 88.2225 35.5378 88.5637 35.751C88.9694 36.0045 89.0618 36.4339 89.0618 36.7447V36.7786L89.0586 36.8123C88.7981 39.5209 88.66 43.0353 88.6466 47.3618H95.5994C95.9024 47.3618 96.2592 47.438 96.5354 47.7141C96.8115 47.9902 96.8877 48.3471 96.8877 48.6501V54.8942C96.8877 55.1972 96.8115 55.5541 96.5354 55.8302C96.2592 56.1063 95.9024 56.1825 95.5994 56.1825H88.5623V76.7901C88.5623 78.6132 88.8876 79.8129 89.4135 80.5205C89.8903 81.1098 90.7695 81.4961 92.2692 81.4961C93.0727 81.4961 94.1134 81.3451 95.4062 81.0231C95.6591 80.9445 96.0737 80.8875 96.4257 81.1809C96.7601 81.4596 96.8045 81.8709 96.8045 82.1184V87.1136C96.8045 87.7632 96.544 88.3309 95.9907 88.6997L95.94 88.7336Z" fill="white"/>
</svg>
